<?xml version="1.0" encoding="UTF-8" standalone="no"?>
<!DOCTYPE svg PUBLIC "-//W3C//DTD SVG 1.1//EN" "http://www.w3.org/Graphics/SVG/1.1/DTD/svg11.dtd">
<svg width="100%" height="100%" viewBox="0 0 64 64" version="1.1" xmlns="http://www.w3.org/2000/svg" xmlns:xlink="http://www.w3.org/1999/xlink" xml:space="preserve" xmlns:serif="http://www.serif.com/" style="fill-rule:evenodd;clip-rule:evenodd;stroke-linecap:round;stroke-linejoin:round;stroke-miterlimit:1.5;">
    <g transform="matrix(0.9814,0,0,0.965391,0.828901,0.0209418)">
        <path d="M25.263,65.681C24.662,65.681 25.024,61.001 25.126,58.718C25.262,55.672 25.655,52.447 25.541,49.408C25.369,44.826 24.922,40.276 24.595,35.71C24.464,33.88 24.737,32.054 24.942,30.247C24.975,29.95 25.179,28.603 24.912,28.381C24.629,28.146 23.908,28.161 23.563,28.096C22.094,27.818 20.601,27.797 19.102,27.797C14.186,27.797 9.096,28.823 4.228,28.019C3.201,27.849 1.865,28.07 0.932,27.652C0.669,27.534 0.104,27.803 -0.121,27.638C-0.228,27.56 0.268,27.055 0.311,27.005C0.83,26.398 1.449,25.885 2.054,25.369C4.582,23.211 7.759,21.813 10.394,19.752C11.693,18.736 12.876,17.605 14.23,16.661C15.486,15.786 16.962,15.284 18.267,14.497C20.819,12.957 23.261,11.286 25.584,9.411C27.283,8.04 28.51,6.087 29.912,4.441C30.848,3.343 32.426,1.77 32.926,0.649C33.026,0.425 33.053,1.125 33.162,1.345C33.385,1.795 33.503,2.328 33.684,2.8C34.194,4.127 35.188,5.056 36.112,6.099C37.554,7.726 39.68,8.57 41.318,9.968C43.02,11.42 44.383,13.217 46.083,14.65C49.619,17.631 53.476,20.765 57.565,22.911C59.256,23.799 61.091,24.525 62.403,25.98C62.507,26.096 63.771,26.96 63.722,27.011C62.897,27.855 60.509,27.184 59.436,27.413C56.233,28.097 53.172,27.813 49.91,27.882C48.33,27.915 46.654,28.521 45.059,28.23C43.474,27.94 41.837,28.277 40.363,27.805C40.177,27.746 39.141,27.56 38.971,27.734C38.587,28.128 38.558,29.497 38.513,30.011C38.336,32.028 38.261,34.022 38.175,36.045C37.976,40.751 37.306,45.439 36.818,50.123C36.609,52.127 36.904,54.189 36.719,56.2C36.526,58.305 36.444,60.697 36.677,62.812C36.69,62.936 36.906,64.876 36.707,65.004C36.09,65.398 34.677,64.98 33.915,65.037C31.631,65.207 27.559,65.681 25.263,65.681Z" style="fill:rgb(133,133,133);stroke:rgb(116,116,116);stroke-width:1.03px;"/>
    </g>
</svg>
